<mxfile host="app.diagrams.net" modified="2023-06-21T22:26:59.663Z" agent="Mozilla/5.0 (Windows NT 10.0; Win64; x64) AppleWebKit/537.36 (KHTML, like Gecko) Chrome/114.0.0.0 Safari/537.36" etag="UK8l-m_vQAUZvGBBnvUf" version="21.5.0" type="github">
  <diagram name="PÃ¡gina-1" id="evXnr9bG23RZXwJHqjiN">
    <mxGraphModel dx="1434" dy="1196" grid="1" gridSize="10" guides="1" tooltips="1" connect="1" arrows="1" fold="1" page="0" pageScale="1" pageWidth="827" pageHeight="1169" math="0" shadow="0">
      <root>
        <mxCell id="0" />
        <mxCell id="1" parent="0" />
        <mxCell id="KWXuAOZ1vndoVBCE2ZWb-1" value="" style="ellipse;whiteSpace=wrap;html=1;aspect=fixed;" parent="1" vertex="1">
          <mxGeometry x="70" y="20" width="80" height="80" as="geometry" />
        </mxCell>
        <mxCell id="KWXuAOZ1vndoVBCE2ZWb-9" value="" style="edgeStyle=orthogonalEdgeStyle;rounded=0;orthogonalLoop=1;jettySize=auto;html=1;" parent="1" source="KWXuAOZ1vndoVBCE2ZWb-2" target="KWXuAOZ1vndoVBCE2ZWb-3" edge="1">
          <mxGeometry relative="1" as="geometry" />
        </mxCell>
        <mxCell id="KWXuAOZ1vndoVBCE2ZWb-2" value="Start" style="ellipse;whiteSpace=wrap;html=1;aspect=fixed;" parent="1" vertex="1">
          <mxGeometry x="75" y="25" width="70" height="70" as="geometry" />
        </mxCell>
        <mxCell id="KWXuAOZ1vndoVBCE2ZWb-10" style="edgeStyle=orthogonalEdgeStyle;rounded=0;orthogonalLoop=1;jettySize=auto;html=1;entryX=0;entryY=0.5;entryDx=0;entryDy=0;" parent="1" source="KWXuAOZ1vndoVBCE2ZWb-3" target="KWXuAOZ1vndoVBCE2ZWb-4" edge="1">
          <mxGeometry relative="1" as="geometry" />
        </mxCell>
        <mxCell id="KWXuAOZ1vndoVBCE2ZWb-3" value="iddle" style="ellipse;whiteSpace=wrap;html=1;aspect=fixed;" parent="1" vertex="1">
          <mxGeometry x="70" y="200" width="80" height="80" as="geometry" />
        </mxCell>
        <mxCell id="KWXuAOZ1vndoVBCE2ZWb-11" style="edgeStyle=orthogonalEdgeStyle;rounded=0;orthogonalLoop=1;jettySize=auto;html=1;entryX=0;entryY=0.5;entryDx=0;entryDy=0;curved=1;" parent="1" source="KWXuAOZ1vndoVBCE2ZWb-4" target="KWXuAOZ1vndoVBCE2ZWb-5" edge="1">
          <mxGeometry relative="1" as="geometry">
            <Array as="points">
              <mxPoint x="400" y="220" />
              <mxPoint x="400" y="140" />
            </Array>
          </mxGeometry>
        </mxCell>
        <mxCell id="KWXuAOZ1vndoVBCE2ZWb-12" style="edgeStyle=orthogonalEdgeStyle;rounded=0;orthogonalLoop=1;jettySize=auto;html=1;entryX=-0.012;entryY=0.6;entryDx=0;entryDy=0;entryPerimeter=0;curved=1;" parent="1" source="KWXuAOZ1vndoVBCE2ZWb-4" target="KWXuAOZ1vndoVBCE2ZWb-6" edge="1">
          <mxGeometry relative="1" as="geometry">
            <Array as="points">
              <mxPoint x="430" y="260" />
              <mxPoint x="430" y="358" />
            </Array>
          </mxGeometry>
        </mxCell>
        <mxCell id="KWXuAOZ1vndoVBCE2ZWb-29" style="edgeStyle=orthogonalEdgeStyle;rounded=0;orthogonalLoop=1;jettySize=auto;html=1;entryX=0.5;entryY=1;entryDx=0;entryDy=0;curved=1;" parent="1" source="KWXuAOZ1vndoVBCE2ZWb-4" target="KWXuAOZ1vndoVBCE2ZWb-3" edge="1">
          <mxGeometry relative="1" as="geometry">
            <Array as="points">
              <mxPoint x="330" y="330" />
              <mxPoint x="110" y="330" />
            </Array>
          </mxGeometry>
        </mxCell>
        <mxCell id="KWXuAOZ1vndoVBCE2ZWb-4" value="ready" style="ellipse;whiteSpace=wrap;html=1;aspect=fixed;" parent="1" vertex="1">
          <mxGeometry x="300" y="200" width="80" height="80" as="geometry" />
        </mxCell>
        <mxCell id="KWXuAOZ1vndoVBCE2ZWb-15" style="edgeStyle=orthogonalEdgeStyle;rounded=0;orthogonalLoop=1;jettySize=auto;html=1;" parent="1" source="KWXuAOZ1vndoVBCE2ZWb-5" edge="1">
          <mxGeometry relative="1" as="geometry">
            <mxPoint x="690" y="140" as="targetPoint" />
          </mxGeometry>
        </mxCell>
        <mxCell id="KWXuAOZ1vndoVBCE2ZWb-23" style="edgeStyle=orthogonalEdgeStyle;rounded=0;orthogonalLoop=1;jettySize=auto;html=1;entryX=1;entryY=0.5;entryDx=0;entryDy=0;curved=1;" parent="1" source="KWXuAOZ1vndoVBCE2ZWb-5" target="KWXuAOZ1vndoVBCE2ZWb-4" edge="1">
          <mxGeometry relative="1" as="geometry">
            <Array as="points">
              <mxPoint x="520" y="190" />
              <mxPoint x="450" y="190" />
              <mxPoint x="450" y="240" />
            </Array>
          </mxGeometry>
        </mxCell>
        <mxCell id="KWXuAOZ1vndoVBCE2ZWb-25" style="edgeStyle=orthogonalEdgeStyle;rounded=0;orthogonalLoop=1;jettySize=auto;html=1;entryX=0.5;entryY=0;entryDx=0;entryDy=0;curved=1;" parent="1" source="KWXuAOZ1vndoVBCE2ZWb-5" target="KWXuAOZ1vndoVBCE2ZWb-3" edge="1">
          <mxGeometry relative="1" as="geometry">
            <Array as="points">
              <mxPoint x="110" y="120" />
            </Array>
          </mxGeometry>
        </mxCell>
        <mxCell id="KWXuAOZ1vndoVBCE2ZWb-5" value="get" style="ellipse;whiteSpace=wrap;html=1;aspect=fixed;" parent="1" vertex="1">
          <mxGeometry x="480" y="100" width="80" height="80" as="geometry" />
        </mxCell>
        <mxCell id="KWXuAOZ1vndoVBCE2ZWb-16" style="edgeStyle=orthogonalEdgeStyle;rounded=0;orthogonalLoop=1;jettySize=auto;html=1;entryX=0;entryY=0.5;entryDx=0;entryDy=0;" parent="1" source="KWXuAOZ1vndoVBCE2ZWb-6" target="KWXuAOZ1vndoVBCE2ZWb-8" edge="1">
          <mxGeometry relative="1" as="geometry" />
        </mxCell>
        <mxCell id="KWXuAOZ1vndoVBCE2ZWb-24" style="edgeStyle=orthogonalEdgeStyle;rounded=0;orthogonalLoop=1;jettySize=auto;html=1;entryX=1;entryY=0.5;entryDx=0;entryDy=0;curved=1;" parent="1" source="KWXuAOZ1vndoVBCE2ZWb-6" target="KWXuAOZ1vndoVBCE2ZWb-4" edge="1">
          <mxGeometry relative="1" as="geometry">
            <Array as="points">
              <mxPoint x="470" y="330" />
              <mxPoint x="470" y="240" />
            </Array>
          </mxGeometry>
        </mxCell>
        <mxCell id="KWXuAOZ1vndoVBCE2ZWb-26" style="edgeStyle=orthogonalEdgeStyle;rounded=0;orthogonalLoop=1;jettySize=auto;html=1;entryX=0.5;entryY=1;entryDx=0;entryDy=0;curved=1;" parent="1" source="KWXuAOZ1vndoVBCE2ZWb-6" target="KWXuAOZ1vndoVBCE2ZWb-3" edge="1">
          <mxGeometry relative="1" as="geometry">
            <Array as="points">
              <mxPoint x="520" y="410" />
              <mxPoint x="110" y="410" />
            </Array>
          </mxGeometry>
        </mxCell>
        <mxCell id="KWXuAOZ1vndoVBCE2ZWb-6" value="set" style="ellipse;whiteSpace=wrap;html=1;aspect=fixed;" parent="1" vertex="1">
          <mxGeometry x="480" y="310" width="80" height="80" as="geometry" />
        </mxCell>
        <mxCell id="KWXuAOZ1vndoVBCE2ZWb-22" style="edgeStyle=orthogonalEdgeStyle;rounded=0;orthogonalLoop=1;jettySize=auto;html=1;entryX=1;entryY=0.5;entryDx=0;entryDy=0;curved=1;" parent="1" source="KWXuAOZ1vndoVBCE2ZWb-7" target="KWXuAOZ1vndoVBCE2ZWb-4" edge="1">
          <mxGeometry relative="1" as="geometry">
            <Array as="points">
              <mxPoint x="730" y="190" />
              <mxPoint x="535" y="190" />
              <mxPoint x="535" y="240" />
            </Array>
          </mxGeometry>
        </mxCell>
        <mxCell id="KWXuAOZ1vndoVBCE2ZWb-27" style="edgeStyle=orthogonalEdgeStyle;rounded=0;orthogonalLoop=1;jettySize=auto;html=1;entryX=0.5;entryY=0;entryDx=0;entryDy=0;curved=1;" parent="1" source="KWXuAOZ1vndoVBCE2ZWb-7" target="KWXuAOZ1vndoVBCE2ZWb-3" edge="1">
          <mxGeometry relative="1" as="geometry">
            <Array as="points">
              <mxPoint x="730" y="30" />
              <mxPoint x="110" y="30" />
            </Array>
          </mxGeometry>
        </mxCell>
        <mxCell id="KWXuAOZ1vndoVBCE2ZWb-7" value="param" style="ellipse;whiteSpace=wrap;html=1;aspect=fixed;" parent="1" vertex="1">
          <mxGeometry x="690" y="95" width="80" height="80" as="geometry" />
        </mxCell>
        <mxCell id="KWXuAOZ1vndoVBCE2ZWb-20" style="edgeStyle=orthogonalEdgeStyle;rounded=0;orthogonalLoop=1;jettySize=auto;html=1;entryX=0.5;entryY=1;entryDx=0;entryDy=0;curved=1;" parent="1" source="KWXuAOZ1vndoVBCE2ZWb-8" target="KWXuAOZ1vndoVBCE2ZWb-3" edge="1">
          <mxGeometry relative="1" as="geometry">
            <Array as="points">
              <mxPoint x="740" y="490" />
              <mxPoint x="110" y="490" />
            </Array>
          </mxGeometry>
        </mxCell>
        <mxCell id="KWXuAOZ1vndoVBCE2ZWb-21" style="edgeStyle=orthogonalEdgeStyle;rounded=0;orthogonalLoop=1;jettySize=auto;html=1;entryX=1;entryY=0.5;entryDx=0;entryDy=0;curved=1;exitX=0.05;exitY=0.313;exitDx=0;exitDy=0;exitPerimeter=0;" parent="1" source="KWXuAOZ1vndoVBCE2ZWb-8" target="KWXuAOZ1vndoVBCE2ZWb-4" edge="1">
          <mxGeometry relative="1" as="geometry">
            <Array as="points">
              <mxPoint x="704" y="320" />
              <mxPoint x="540" y="320" />
              <mxPoint x="540" y="240" />
            </Array>
          </mxGeometry>
        </mxCell>
        <mxCell id="KWXuAOZ1vndoVBCE2ZWb-8" value="value" style="ellipse;whiteSpace=wrap;html=1;aspect=fixed;" parent="1" vertex="1">
          <mxGeometry x="700" y="310" width="80" height="80" as="geometry" />
        </mxCell>
        <mxCell id="KWXuAOZ1vndoVBCE2ZWb-17" style="edgeStyle=orthogonalEdgeStyle;rounded=0;orthogonalLoop=1;jettySize=auto;html=1;entryX=0.5;entryY=1;entryDx=0;entryDy=0;curved=1;" parent="1" source="KWXuAOZ1vndoVBCE2ZWb-3" target="KWXuAOZ1vndoVBCE2ZWb-3" edge="1">
          <mxGeometry relative="1" as="geometry">
            <Array as="points">
              <mxPoint x="90" y="180" />
              <mxPoint x="30" y="180" />
              <mxPoint x="30" y="300" />
              <mxPoint x="110" y="300" />
            </Array>
          </mxGeometry>
        </mxCell>
        <mxCell id="KWXuAOZ1vndoVBCE2ZWb-18" style="edgeStyle=orthogonalEdgeStyle;rounded=0;orthogonalLoop=1;jettySize=auto;html=1;curved=1;" parent="1" source="KWXuAOZ1vndoVBCE2ZWb-4" target="KWXuAOZ1vndoVBCE2ZWb-4" edge="1">
          <mxGeometry relative="1" as="geometry">
            <Array as="points">
              <mxPoint x="320" y="160" />
              <mxPoint x="360" y="160" />
            </Array>
          </mxGeometry>
        </mxCell>
        <mxCell id="KWXuAOZ1vndoVBCE2ZWb-19" style="edgeStyle=orthogonalEdgeStyle;rounded=0;orthogonalLoop=1;jettySize=auto;html=1;curved=1;" parent="1" source="KWXuAOZ1vndoVBCE2ZWb-8" target="KWXuAOZ1vndoVBCE2ZWb-8" edge="1">
          <mxGeometry relative="1" as="geometry">
            <Array as="points">
              <mxPoint x="710" y="270" />
            </Array>
          </mxGeometry>
        </mxCell>
        <mxCell id="KWXuAOZ1vndoVBCE2ZWb-30" value="others" style="text;html=1;strokeColor=none;fillColor=none;align=center;verticalAlign=middle;whiteSpace=wrap;rounded=0;" parent="1" vertex="1">
          <mxGeometry x="30" y="150" width="60" height="30" as="geometry" />
        </mxCell>
        <mxCell id="KWXuAOZ1vndoVBCE2ZWb-31" value="&#39;-&#39;" style="text;html=1;strokeColor=none;fillColor=none;align=center;verticalAlign=middle;whiteSpace=wrap;rounded=0;" parent="1" vertex="1">
          <mxGeometry x="190" y="210" width="60" height="30" as="geometry" />
        </mxCell>
        <mxCell id="KWXuAOZ1vndoVBCE2ZWb-32" value="&#39;-&#39;" style="text;html=1;strokeColor=none;fillColor=none;align=center;verticalAlign=middle;whiteSpace=wrap;rounded=0;" parent="1" vertex="1">
          <mxGeometry x="310" y="130" width="60" height="30" as="geometry" />
        </mxCell>
        <mxCell id="KWXuAOZ1vndoVBCE2ZWb-33" value="others" style="text;html=1;strokeColor=none;fillColor=none;align=center;verticalAlign=middle;whiteSpace=wrap;rounded=0;" parent="1" vertex="1">
          <mxGeometry x="190" y="300" width="60" height="30" as="geometry" />
        </mxCell>
        <mxCell id="KWXuAOZ1vndoVBCE2ZWb-34" value="others" style="text;html=1;strokeColor=none;fillColor=none;align=center;verticalAlign=middle;whiteSpace=wrap;rounded=0;" parent="1" vertex="1">
          <mxGeometry x="310" y="380" width="60" height="30" as="geometry" />
        </mxCell>
        <mxCell id="KWXuAOZ1vndoVBCE2ZWb-35" value="&#39;!&#39;, others" style="text;html=1;strokeColor=none;fillColor=none;align=center;verticalAlign=middle;whiteSpace=wrap;rounded=0;" parent="1" vertex="1">
          <mxGeometry x="420" y="460" width="60" height="30" as="geometry" />
        </mxCell>
        <mxCell id="KWXuAOZ1vndoVBCE2ZWb-36" value="&#39;!&#39;, others" style="text;html=1;strokeColor=none;fillColor=none;align=center;verticalAlign=middle;whiteSpace=wrap;rounded=0;" parent="1" vertex="1">
          <mxGeometry x="440" y="-5" width="60" height="30" as="geometry" />
        </mxCell>
        <mxCell id="KWXuAOZ1vndoVBCE2ZWb-37" value="others" style="text;html=1;strokeColor=none;fillColor=none;align=center;verticalAlign=middle;whiteSpace=wrap;rounded=0;" parent="1" vertex="1">
          <mxGeometry x="340" y="90" width="60" height="30" as="geometry" />
        </mxCell>
        <mxCell id="KWXuAOZ1vndoVBCE2ZWb-39" value="&#39;-&#39;" style="text;html=1;strokeColor=none;fillColor=none;align=center;verticalAlign=middle;whiteSpace=wrap;rounded=0;" parent="1" vertex="1">
          <mxGeometry x="450" y="210" width="60" height="30" as="geometry" />
        </mxCell>
        <mxCell id="KWXuAOZ1vndoVBCE2ZWb-40" value="&#39;g&#39;" style="text;html=1;strokeColor=none;fillColor=none;align=center;verticalAlign=middle;whiteSpace=wrap;rounded=0;" parent="1" vertex="1">
          <mxGeometry x="370" y="140" width="60" height="30" as="geometry" />
        </mxCell>
        <mxCell id="KWXuAOZ1vndoVBCE2ZWb-41" value="&#39;s&#39;" style="text;html=1;strokeColor=none;fillColor=none;align=center;verticalAlign=middle;whiteSpace=wrap;rounded=0;" parent="1" vertex="1">
          <mxGeometry x="390" y="310" width="60" height="30" as="geometry" />
        </mxCell>
        <mxCell id="KWXuAOZ1vndoVBCE2ZWb-42" value="&#39;t&#39;, &#39;h&#39; , &#39;c&#39;, &#39;p&#39;, &#39;d&#39;, &#39;i&#39; , &#39;a&#39;" style="text;html=1;strokeColor=none;fillColor=none;align=center;verticalAlign=middle;whiteSpace=wrap;rounded=0;" parent="1" vertex="1">
          <mxGeometry x="570" y="110" width="110" height="30" as="geometry" />
        </mxCell>
        <mxCell id="KWXuAOZ1vndoVBCE2ZWb-43" value="&#39;t&#39;, &#39;h&#39; , &#39;c&#39;, &#39;p&#39;, &#39;d&#39;, &#39;i&#39;&amp;nbsp;" style="text;html=1;strokeColor=none;fillColor=none;align=center;verticalAlign=middle;whiteSpace=wrap;rounded=0;" parent="1" vertex="1">
          <mxGeometry x="571" y="350" width="110" height="30" as="geometry" />
        </mxCell>
        <mxCell id="KWXuAOZ1vndoVBCE2ZWb-44" value="&#39;0-9&#39;, &#39;,&#39;" style="text;html=1;strokeColor=none;fillColor=none;align=center;verticalAlign=middle;whiteSpace=wrap;rounded=0;" parent="1" vertex="1">
          <mxGeometry x="710" y="240" width="60" height="30" as="geometry" />
        </mxCell>
      </root>
    </mxGraphModel>
  </diagram>
</mxfile>
